<svg width="20" height="20" viewBox="0 0 20 20" fill="none" xmlns="http://www.w3.org/2000/svg">
<path d="M19 8H17V5C17 4.73478 16.8946 4.48043 16.7071 4.29289C16.5196 4.10536 16.2652 4 16 4H11V1C11 0.734784 10.8946 0.48043 10.7071 0.292893C10.5196 0.105357 10.2652 0 10 0C9.73478 0 9.48043 0.105357 9.29289 0.292893C9.10536 0.48043 9 0.734784 9 1V4H4C3.73478 4 3.48043 4.10536 3.29289 4.29289C3.10536 4.48043 3 4.73478 3 5V8H1C0.734784 8 0.48043 8.10536 0.292893 8.29289C0.105357 8.48043 0 8.73478 0 9V15C0 15.2652 0.105357 15.5196 0.292893 15.7071C0.48043 15.8946 0.734784 16 1 16H9V19C9 19.2652 9.10536 19.5196 9.29289 19.7071C9.48043 19.8946 9.73478 20 10 20C10.2652 20 10.5196 19.8946 10.7071 19.7071C10.8946 19.5196 11 19.2652 11 19V16H19C19.2652 16 19.5196 15.8946 19.7071 15.7071C19.8946 15.5196 20 15.2652 20 15V9C20 8.73478 19.8946 8.48043 19.7071 8.29289C19.5196 8.10536 19.2652 8 19 8ZM5 6H15V8H5V6ZM18 14H2V10H18V14Z" fill="#5F6388"/>
<path d="M10 0.5C10.1326 0.5 10.2597 0.552716 10.3535 0.646484C10.4473 0.740253 10.5 0.867392 10.5 1V4.5H16C16.1326 4.5 16.2597 4.55272 16.3535 4.64648C16.4473 4.74025 16.5 4.86739 16.5 5V8.5H19C19.1326 8.5 19.2597 8.55272 19.3535 8.64648C19.4473 8.74025 19.5 8.86739 19.5 9V15C19.5 15.1326 19.4473 15.2597 19.3535 15.3535C19.2597 15.4473 19.1326 15.5 19 15.5H10.5V19C10.5 19.1326 10.4473 19.2597 10.3535 19.3535C10.2597 19.4473 10.1326 19.5 10 19.5C9.86739 19.5 9.74025 19.4473 9.64648 19.3535C9.55272 19.2597 9.5 19.1326 9.5 19V15.5H1C0.867391 15.5 0.740252 15.4473 0.646484 15.3535C0.552717 15.2597 0.5 15.1326 0.5 15V9C0.5 8.86739 0.552716 8.74025 0.646484 8.64648C0.740253 8.55272 0.867392 8.5 1 8.5H3.5V5C3.5 4.86739 3.55272 4.74025 3.64648 4.64648C3.74025 4.55272 3.86739 4.5 4 4.5H9.5V1C9.5 0.867392 9.55272 0.740253 9.64648 0.646484C9.71689 0.576081 9.80611 0.528936 9.90234 0.509766L10 0.5ZM1.5 14.5H18.5V9.5H1.5V14.5ZM4.5 8.5H15.5V5.5H4.5V8.5Z" stroke="#727272" stroke-opacity="0.31"/>
</svg>
