<svg width="32" height="36" viewBox="0 0 32 36" fill="none" xmlns="http://www.w3.org/2000/svg">
<path d="M0.5 10.0303V25.5519C0.5 26.2736 0.888793 26.9393 1.51736 27.2938L8.32203 31.1324V27.9233H11.3305V23.7115H15.5424V17.6945H9.52542V11.477H15.5424V7.06457H20.3559V4.0561H22.9633L17.4319 0.895324C16.5096 0.368296 15.3774 0.368298 14.4551 0.895325L1.50772 8.29382C0.884572 8.6499 0.5 9.31259 0.5 10.0303Z" fill="#5051F9" stroke="#727272" stroke-opacity="0.31"/>
<path d="M30.222 8.48656L23.565 4.45728V7.46575H20.3559V11.8782H15.9435V17.6946H21.9605V23.7115H15.9435V28.3245H11.5311V31.5335H8.92373L14.4283 34.679C15.365 35.2142 16.5169 35.2053 17.4452 34.6557L30.2054 27.1003C30.8135 26.7402 31.1864 26.086 31.1864 25.3793V10.1976C31.1864 9.49778 30.8207 8.8489 30.222 8.48656Z" fill="#1DA7FF" stroke="#727272" stroke-opacity="0.31"/>
</svg>
