<svg width="65" height="14" viewBox="0 0 65 14" fill="none" xmlns="http://www.w3.org/2000/svg">
<mask id="path-1-outside-1_1_342" maskUnits="userSpaceOnUse" x="-0.72" y="-0.608032" width="66" height="15" fill="black">
<rect fill="white" x="-0.72" y="-0.608032" width="66" height="15"/>
<path d="M6.616 12.584C5.496 12.584 4.51467 12.3386 3.672 11.848C2.84 11.3573 2.184 10.68 1.704 9.81597C1.23467 8.9413 1 7.9333 1 6.79197C1 5.65063 1.23467 4.64797 1.704 3.78397C2.184 2.9093 2.84 2.22663 3.672 1.73597C4.51467 1.2453 5.496 0.999968 6.616 0.999968C7.72533 0.999968 8.70133 1.2453 9.544 1.73597C10.3867 2.22663 11.0427 2.9093 11.512 3.78397C11.9813 4.64797 12.216 5.65063 12.216 6.79197C12.216 7.9333 11.9813 8.9413 11.512 9.81597C11.0427 10.68 10.3867 11.3573 9.544 11.848C8.70133 12.3386 7.72533 12.584 6.616 12.584ZM6.616 10.744C7.68267 10.744 8.53067 10.392 9.16 9.68797C9.8 8.98397 10.12 8.01863 10.12 6.79197C10.12 5.5653 9.8 4.59997 9.16 3.89597C8.53067 3.19197 7.68267 2.83997 6.616 2.83997C5.54933 2.83997 4.696 3.19197 4.056 3.89597C3.416 4.59997 3.096 5.5653 3.096 6.79197C3.096 8.01863 3.416 8.98397 4.056 9.68797C4.696 10.392 5.54933 10.744 6.616 10.744ZM19.0963 12.584C17.9656 12.584 16.9949 12.344 16.1842 11.864C15.3736 11.3733 14.7496 10.696 14.3122 9.83197C13.8749 8.9573 13.6562 7.9493 13.6562 6.80797C13.6562 5.66663 13.8749 4.65863 14.3122 3.78397C14.7496 2.9093 15.3736 2.22663 16.1842 1.73597C16.9949 1.2453 17.9656 0.999968 19.0963 0.999968C20.4403 0.999968 21.5389 1.33597 22.3923 2.00797C23.2563 2.6693 23.7949 3.60263 24.0083 4.80797H21.7522C21.6136 4.19997 21.3149 3.7253 20.8563 3.38397C20.4083 3.03197 19.8109 2.85597 19.0642 2.85597C18.0296 2.85597 17.2189 3.20797 16.6322 3.91197C16.0456 4.61597 15.7522 5.5813 15.7522 6.80797C15.7522 8.03463 16.0456 8.99997 16.6322 9.70397C17.2189 10.3973 18.0296 10.744 19.0642 10.744C19.8109 10.744 20.4083 10.584 20.8563 10.264C21.3149 9.9333 21.6136 9.47997 21.7522 8.90397H24.0083C23.7949 10.056 23.2563 10.9573 22.3923 11.608C21.5389 12.2586 20.4403 12.584 19.0963 12.584ZM28.2885 12.392V2.83997H25.0245V1.19197H33.6165V2.83997H30.3365V12.392H28.2885ZM39.9754 12.584C38.8554 12.584 37.874 12.3386 37.0314 11.848C36.1994 11.3573 35.5434 10.68 35.0634 9.81597C34.594 8.9413 34.3594 7.9333 34.3594 6.79197C34.3594 5.65063 34.594 4.64797 35.0634 3.78397C35.5434 2.9093 36.1994 2.22663 37.0314 1.73597C37.874 1.2453 38.8554 0.999968 39.9754 0.999968C41.0847 0.999968 42.0607 1.2453 42.9034 1.73597C43.746 2.22663 44.402 2.9093 44.8714 3.78397C45.3407 4.64797 45.5754 5.65063 45.5754 6.79197C45.5754 7.9333 45.3407 8.9413 44.8714 9.81597C44.402 10.68 43.746 11.3573 42.9034 11.848C42.0607 12.3386 41.0847 12.584 39.9754 12.584ZM39.9754 10.744C41.042 10.744 41.89 10.392 42.5194 9.68797C43.1594 8.98397 43.4794 8.01863 43.4794 6.79197C43.4794 5.5653 43.1594 4.59997 42.5194 3.89597C41.89 3.19197 41.042 2.83997 39.9754 2.83997C38.9087 2.83997 38.0554 3.19197 37.4154 3.89597C36.7754 4.59997 36.4554 5.5653 36.4554 6.79197C36.4554 8.01863 36.7754 8.98397 37.4154 9.68797C38.0554 10.392 38.9087 10.744 39.9754 10.744ZM47.3836 12.392V1.19197H49.8156L53.3836 8.29597L56.9036 1.19197H59.3356V12.392H57.2876V4.66397L54.1676 10.792H52.5516L49.4316 4.66397V12.392H47.3836ZM62.3406 12.504C61.9673 12.504 61.658 12.3866 61.4126 12.152C61.178 11.9173 61.0606 11.6346 61.0606 11.304C61.0606 10.9626 61.178 10.6746 61.4126 10.44C61.658 10.2053 61.9673 10.088 62.3406 10.088C62.714 10.088 63.018 10.2053 63.2526 10.44C63.498 10.6746 63.6206 10.9626 63.6206 11.304C63.6206 11.6346 63.498 11.9173 63.2526 12.152C63.018 12.3866 62.714 12.504 62.3406 12.504Z"/>
</mask>
<path d="M6.616 12.584C5.496 12.584 4.51467 12.3386 3.672 11.848C2.84 11.3573 2.184 10.68 1.704 9.81597C1.23467 8.9413 1 7.9333 1 6.79197C1 5.65063 1.23467 4.64797 1.704 3.78397C2.184 2.9093 2.84 2.22663 3.672 1.73597C4.51467 1.2453 5.496 0.999968 6.616 0.999968C7.72533 0.999968 8.70133 1.2453 9.544 1.73597C10.3867 2.22663 11.0427 2.9093 11.512 3.78397C11.9813 4.64797 12.216 5.65063 12.216 6.79197C12.216 7.9333 11.9813 8.9413 11.512 9.81597C11.0427 10.68 10.3867 11.3573 9.544 11.848C8.70133 12.3386 7.72533 12.584 6.616 12.584ZM6.616 10.744C7.68267 10.744 8.53067 10.392 9.16 9.68797C9.8 8.98397 10.12 8.01863 10.12 6.79197C10.12 5.5653 9.8 4.59997 9.16 3.89597C8.53067 3.19197 7.68267 2.83997 6.616 2.83997C5.54933 2.83997 4.696 3.19197 4.056 3.89597C3.416 4.59997 3.096 5.5653 3.096 6.79197C3.096 8.01863 3.416 8.98397 4.056 9.68797C4.696 10.392 5.54933 10.744 6.616 10.744ZM19.0963 12.584C17.9656 12.584 16.9949 12.344 16.1842 11.864C15.3736 11.3733 14.7496 10.696 14.3122 9.83197C13.8749 8.9573 13.6562 7.9493 13.6562 6.80797C13.6562 5.66663 13.8749 4.65863 14.3122 3.78397C14.7496 2.9093 15.3736 2.22663 16.1842 1.73597C16.9949 1.2453 17.9656 0.999968 19.0963 0.999968C20.4403 0.999968 21.5389 1.33597 22.3923 2.00797C23.2563 2.6693 23.7949 3.60263 24.0083 4.80797H21.7522C21.6136 4.19997 21.3149 3.7253 20.8563 3.38397C20.4083 3.03197 19.8109 2.85597 19.0642 2.85597C18.0296 2.85597 17.2189 3.20797 16.6322 3.91197C16.0456 4.61597 15.7522 5.5813 15.7522 6.80797C15.7522 8.03463 16.0456 8.99997 16.6322 9.70397C17.2189 10.3973 18.0296 10.744 19.0642 10.744C19.8109 10.744 20.4083 10.584 20.8563 10.264C21.3149 9.9333 21.6136 9.47997 21.7522 8.90397H24.0083C23.7949 10.056 23.2563 10.9573 22.3923 11.608C21.5389 12.2586 20.4403 12.584 19.0963 12.584ZM28.2885 12.392V2.83997H25.0245V1.19197H33.6165V2.83997H30.3365V12.392H28.2885ZM39.9754 12.584C38.8554 12.584 37.874 12.3386 37.0314 11.848C36.1994 11.3573 35.5434 10.68 35.0634 9.81597C34.594 8.9413 34.3594 7.9333 34.3594 6.79197C34.3594 5.65063 34.594 4.64797 35.0634 3.78397C35.5434 2.9093 36.1994 2.22663 37.0314 1.73597C37.874 1.2453 38.8554 0.999968 39.9754 0.999968C41.0847 0.999968 42.0607 1.2453 42.9034 1.73597C43.746 2.22663 44.402 2.9093 44.8714 3.78397C45.3407 4.64797 45.5754 5.65063 45.5754 6.79197C45.5754 7.9333 45.3407 8.9413 44.8714 9.81597C44.402 10.68 43.746 11.3573 42.9034 11.848C42.0607 12.3386 41.0847 12.584 39.9754 12.584ZM39.9754 10.744C41.042 10.744 41.89 10.392 42.5194 9.68797C43.1594 8.98397 43.4794 8.01863 43.4794 6.79197C43.4794 5.5653 43.1594 4.59997 42.5194 3.89597C41.89 3.19197 41.042 2.83997 39.9754 2.83997C38.9087 2.83997 38.0554 3.19197 37.4154 3.89597C36.7754 4.59997 36.4554 5.5653 36.4554 6.79197C36.4554 8.01863 36.7754 8.98397 37.4154 9.68797C38.0554 10.392 38.9087 10.744 39.9754 10.744ZM47.3836 12.392V1.19197H49.8156L53.3836 8.29597L56.9036 1.19197H59.3356V12.392H57.2876V4.66397L54.1676 10.792H52.5516L49.4316 4.66397V12.392H47.3836ZM62.3406 12.504C61.9673 12.504 61.658 12.3866 61.4126 12.152C61.178 11.9173 61.0606 11.6346 61.0606 11.304C61.0606 10.9626 61.178 10.6746 61.4126 10.44C61.658 10.2053 61.9673 10.088 62.3406 10.088C62.714 10.088 63.018 10.2053 63.2526 10.44C63.498 10.6746 63.6206 10.9626 63.6206 11.304C63.6206 11.6346 63.498 11.9173 63.2526 12.152C63.018 12.3866 62.714 12.504 62.3406 12.504Z" fill="white"/>
<path d="M3.672 11.848L3.16401 12.7093L3.16881 12.7121L3.672 11.848ZM1.704 9.81597L0.822839 10.2888L0.826294 10.2952L0.829842 10.3016L1.704 9.81597ZM1.704 3.78397L0.827325 3.30286L0.825276 3.30664L1.704 3.78397ZM3.672 1.73597L3.1688 0.871779L3.16401 0.874602L3.672 1.73597ZM9.544 1.73597L10.0472 0.871792H10.0472L9.544 1.73597ZM11.512 3.78397L10.6308 4.25679L10.6333 4.2613L11.512 3.78397ZM11.512 9.81597L12.3907 10.2933L12.3932 10.2888L11.512 9.81597ZM9.544 11.848L10.0472 12.7121H10.0472L9.544 11.848ZM9.16 9.68797L8.42003 9.01527L8.41446 9.0215L9.16 9.68797ZM9.16 3.89597L8.41444 4.56246L8.42006 4.56864L9.16 3.89597ZM4.056 3.89597L4.79594 4.56864L4.056 3.89597ZM4.056 9.68797L4.79594 9.0153H4.79594L4.056 9.68797ZM6.616 12.584V11.584C5.64612 11.584 4.84358 11.373 4.17519 10.9838L3.672 11.848L3.16881 12.7121C4.18576 13.3043 5.34588 13.584 6.616 13.584V12.584ZM3.672 11.848L4.17999 10.9866C3.505 10.5885 2.97382 10.0425 2.57816 9.33032L1.704 9.81597L0.829842 10.3016C1.39418 11.3174 2.17499 12.1261 3.16401 12.7093L3.672 11.848ZM1.704 9.81597L2.58516 9.34315C2.20483 8.63435 2 7.79322 2 6.79197H1H-2.38419e-07C-2.38419e-07 8.07338 0.264506 9.24825 0.822839 10.2888L1.704 9.81597ZM1 6.79197H2C2 5.7904 2.20493 4.95679 2.58272 4.2613L1.704 3.78397L0.825276 3.30664C0.264406 4.33915 -2.38419e-07 5.51087 -2.38419e-07 6.79197H1ZM1.704 3.78397L2.58067 4.26506C2.97717 3.54255 3.50808 2.99359 4.17999 2.59733L3.672 1.73597L3.16401 0.874602C2.17192 1.45968 1.39083 2.27605 0.827333 3.30287L1.704 3.78397ZM3.672 1.73597L4.17519 2.60014C4.84358 2.21096 5.64612 1.99997 6.616 1.99997V0.999968V-3.24249e-05C5.34588 -3.24249e-05 4.18576 0.279646 3.16881 0.871792L3.672 1.73597ZM6.616 0.999968V1.99997C7.57332 1.99997 8.37099 2.21012 9.04081 2.60014L9.544 1.73597L10.0472 0.871792C9.03168 0.280479 7.87735 -3.24249e-05 6.616 -3.24249e-05V0.999968ZM9.544 1.73597L9.04081 2.60014C9.72074 2.99605 10.2472 3.54191 10.6308 4.25678L11.512 3.78397L12.3932 3.31115C11.8381 2.27669 11.0526 1.45722 10.0472 0.871792L9.544 1.73597ZM11.512 3.78397L10.6333 4.2613C11.0111 4.95679 11.216 5.7904 11.216 6.79197H12.216H13.216C13.216 5.51087 12.9516 4.33915 12.3907 3.30664L11.512 3.78397ZM12.216 6.79197H11.216C11.216 7.79322 11.0112 8.63435 10.6308 9.34315L11.512 9.81597L12.3932 10.2888C12.9515 9.24825 13.216 8.07338 13.216 6.79197H12.216ZM11.512 9.81597L10.6333 9.33864C10.2506 10.0432 9.72386 10.5861 9.04081 10.9838L9.544 11.848L10.0472 12.7121C11.0495 12.1285 11.8348 11.3168 12.3907 10.2933L11.512 9.81597ZM9.544 11.848L9.04081 10.9838C8.37099 11.3738 7.57332 11.584 6.616 11.584V12.584V13.584C7.87735 13.584 9.03168 13.3035 10.0472 12.7121L9.544 11.848ZM6.616 10.744V11.744C7.92636 11.744 9.0608 11.2994 9.90554 10.3544L9.16 9.68797L8.41446 9.0215C8.00053 9.48454 7.43897 9.74397 6.616 9.74397V10.744ZM9.16 9.68797L9.89994 10.3606C10.7512 9.42421 11.12 8.19324 11.12 6.79197H10.12H9.12C9.12 7.84403 8.84876 8.54372 8.42006 9.0153L9.16 9.68797ZM10.12 6.79197H11.12C11.12 5.39069 10.7512 4.15972 9.89994 3.22329L9.16 3.89597L8.42006 4.56864C8.84876 5.04021 9.12 5.73991 9.12 6.79197H10.12ZM9.16 3.89597L9.90554 3.2295C9.0608 2.28454 7.92636 1.83997 6.616 1.83997V2.83997V3.83997C7.43897 3.83997 8.00053 4.09939 8.41446 4.56243L9.16 3.89597ZM6.616 2.83997V1.83997C5.30546 1.83997 4.16964 2.28436 3.31606 3.22329L4.056 3.89597L4.79594 4.56864C5.22236 4.09958 5.79321 3.83997 6.616 3.83997V2.83997ZM4.056 3.89597L3.31606 3.22329C2.46476 4.15972 2.096 5.39069 2.096 6.79197H3.096H4.096C4.096 5.73991 4.36724 5.04021 4.79594 4.56864L4.056 3.89597ZM3.096 6.79197H2.096C2.096 8.19324 2.46476 9.42421 3.31606 10.3606L4.056 9.68797L4.79594 9.0153C4.36724 8.54372 4.096 7.84403 4.096 6.79197H3.096ZM4.056 9.68797L3.31606 10.3606C4.16964 11.2996 5.30546 11.744 6.616 11.744V10.744V9.74397C5.79321 9.74397 5.22236 9.48436 4.79594 9.0153L4.056 9.68797ZM16.1842 11.864L15.6664 12.7195L15.6748 12.7244L16.1842 11.864ZM14.3123 9.83197L13.4178 10.2792L13.42 10.2836L14.3123 9.83197ZM14.3123 3.78397L13.4178 3.33675L14.3123 3.78397ZM22.3923 2.00797L21.7735 2.79368L21.7844 2.80205L22.3923 2.00797ZM24.0083 4.80797V5.80797H25.2008L24.9929 4.63369L24.0083 4.80797ZM21.7522 4.80797L20.7773 5.03033L20.9546 5.80797H21.7522V4.80797ZM20.8562 3.38397L20.2384 4.17029L20.2487 4.17838L20.2592 4.1862L20.8562 3.38397ZM16.6322 3.91197L15.864 3.27178H15.864L16.6322 3.91197ZM16.6322 9.70397L15.864 10.3442L15.8689 10.3499L16.6322 9.70397ZM20.8562 10.264L21.4375 11.0777L21.4411 11.0751L20.8562 10.264ZM21.7522 8.90397V7.90397H20.9644L20.78 8.66991L21.7522 8.90397ZM24.0083 8.90397L24.9915 9.08606L25.2104 7.90397H24.0083V8.90397ZM22.3923 11.608L21.7907 10.8091L21.7859 10.8128L22.3923 11.608ZM19.0962 12.584V11.584C18.1089 11.584 17.3219 11.3754 16.6937 11.0035L16.1842 11.864L15.6748 12.7244C16.668 13.3125 17.8223 13.584 19.0962 13.584V12.584ZM16.1842 11.864L16.7021 11.0085C16.0552 10.617 15.5592 10.0812 15.2045 9.38035L14.3123 9.83197L13.42 10.2836C13.94 11.3107 14.692 12.1297 15.6664 12.7195L16.1842 11.864ZM14.3123 9.83197L15.2067 9.38475C14.8495 8.67039 14.6562 7.81995 14.6562 6.80797H13.6562H12.6562C12.6562 8.07865 12.9003 9.24422 13.4178 10.2792L14.3123 9.83197ZM13.6562 6.80797H14.6562C14.6562 5.79598 14.8495 4.94555 15.2067 4.23118L14.3123 3.78397L13.4178 3.33675C12.9003 4.37172 12.6562 5.53729 12.6562 6.80797H13.6562ZM14.3123 3.78397L15.2067 4.23118C15.5624 3.51975 16.0583 2.98109 16.7021 2.59147L16.1842 1.73597L15.6664 0.880467C14.6888 1.47218 13.9368 2.29885 13.4178 3.33675L14.3123 3.78397ZM16.1842 1.73597L16.7021 2.59147C17.3287 2.21217 18.1126 1.99997 19.0962 1.99997V0.999968V-3.24249e-05C17.8185 -3.24249e-05 16.6611 0.278434 15.6664 0.880467L16.1842 1.73597ZM19.0962 0.999968V1.99997C20.2704 1.99997 21.1351 2.29083 21.7736 2.7936L22.3923 2.00797L23.0109 1.22233C21.9427 0.381101 20.6101 -3.24249e-05 19.0962 -3.24249e-05V0.999968ZM22.3923 2.00797L21.7844 2.80205C22.4244 3.29191 22.848 3.99021 23.0236 4.98225L24.0083 4.80797L24.9929 4.63369C24.7419 3.21506 24.0881 2.04669 23.0001 1.21389L22.3923 2.00797ZM24.0083 4.80797V3.80797H21.7522V4.80797V5.80797H24.0083V4.80797ZM21.7522 4.80797L22.7272 4.58561C22.5408 3.76815 22.1208 3.07849 21.4533 2.58173L20.8562 3.38397L20.2592 4.1862C20.5091 4.37211 20.6864 4.63179 20.7773 5.03033L21.7522 4.80797ZM20.8562 3.38397L21.4741 2.59765C20.8018 2.06946 19.9651 1.85597 19.0642 1.85597V2.85597V3.85597C19.6568 3.85597 20.0147 3.99447 20.2384 4.17029L20.8562 3.38397ZM19.0642 2.85597V1.85597C17.7759 1.85597 16.6666 2.30866 15.864 3.27178L16.6322 3.91197L17.4005 4.55215C17.7712 4.10727 18.2833 3.85597 19.0642 3.85597V2.85597ZM16.6322 3.91197L15.864 3.27178C15.0835 4.2084 14.7522 5.42696 14.7522 6.80797H15.7522H16.7522C16.7522 5.73564 17.0076 5.02354 17.4005 4.55215L16.6322 3.91197ZM15.7522 6.80797H14.7522C14.7522 8.18898 15.0835 9.40754 15.864 10.3442L16.6322 9.70397L17.4005 9.06378C17.0076 8.59239 16.7522 7.88029 16.7522 6.80797H15.7522ZM16.6322 9.70397L15.8689 10.3499C16.6732 11.3005 17.7812 11.744 19.0642 11.744V10.744V9.74397C18.278 9.74397 17.7646 9.49406 17.3956 9.05803L16.6322 9.70397ZM19.0642 10.744V11.744C19.9465 11.744 20.7689 11.5553 21.4375 11.0777L20.8562 10.264L20.275 9.45023C20.0476 9.61268 19.6754 9.74397 19.0642 9.74397V10.744ZM20.8562 10.264L21.4411 11.0751C22.1036 10.5975 22.5327 9.93443 22.7245 9.13802L21.7522 8.90397L20.78 8.66991C20.6944 9.0255 20.5263 9.26909 20.2714 9.45279L20.8562 10.264ZM21.7522 8.90397V9.90397H24.0083V8.90397V7.90397H21.7522V8.90397ZM24.0083 8.90397L23.025 8.72188C22.8531 9.65008 22.4373 10.3222 21.7907 10.8092L22.3923 11.608L22.9938 12.4068C24.0752 11.5924 24.7368 10.4619 24.9915 9.08606L24.0083 8.90397ZM22.3923 11.608L21.7859 10.8128C21.1468 11.3001 20.2774 11.584 19.0962 11.584V12.584V13.584C20.6031 13.584 21.9311 13.2172 22.9986 12.4032L22.3923 11.608ZM28.2885 12.392H27.2885V13.392H28.2885V12.392ZM28.2885 2.83997H29.2885V1.83997H28.2885V2.83997ZM25.0245 2.83997H24.0245V3.83997H25.0245V2.83997ZM25.0245 1.19197V0.191967H24.0245V1.19197H25.0245ZM33.6165 1.19197H34.6165V0.191967H33.6165V1.19197ZM33.6165 2.83997V3.83997H34.6165V2.83997H33.6165ZM30.3365 2.83997V1.83997H29.3365V2.83997H30.3365ZM30.3365 12.392V13.392H31.3365V12.392H30.3365ZM28.2885 12.392H29.2885V2.83997H28.2885H27.2885V12.392H28.2885ZM28.2885 2.83997V1.83997H25.0245V2.83997V3.83997H28.2885V2.83997ZM25.0245 2.83997H26.0245V1.19197H25.0245H24.0245V2.83997H25.0245ZM25.0245 1.19197V2.19197H33.6165V1.19197V0.191967H25.0245V1.19197ZM33.6165 1.19197H32.6165V2.83997H33.6165H34.6165V1.19197H33.6165ZM33.6165 2.83997V1.83997H30.3365V2.83997V3.83997H33.6165V2.83997ZM30.3365 2.83997H29.3365V12.392H30.3365H31.3365V2.83997H30.3365ZM30.3365 12.392V11.392H28.2885V12.392V13.392H30.3365V12.392ZM37.0314 11.848L36.5234 12.7093L36.5282 12.7121L37.0314 11.848ZM35.0634 9.81597L34.1822 10.2888L34.1857 10.2952L34.1892 10.3016L35.0634 9.81597ZM35.0634 3.78397L34.1867 3.30286L34.1847 3.30664L35.0634 3.78397ZM37.0314 1.73597L36.5282 0.871779L36.5234 0.874602L37.0314 1.73597ZM42.9034 1.73597L43.4066 0.871792L42.9034 1.73597ZM44.8714 3.78397L43.9902 4.25679L43.9927 4.2613L44.8714 3.78397ZM44.8714 9.81597L45.7501 10.2933L45.7525 10.2888L44.8714 9.81597ZM42.9034 11.848L43.4066 12.7121L42.9034 11.848ZM42.5194 9.68797L41.7794 9.01527L41.7738 9.0215L42.5194 9.68797ZM42.5194 3.89597L41.7738 4.56246L41.7794 4.56864L42.5194 3.89597ZM37.4154 3.89597L38.1553 4.56864L37.4154 3.89597ZM37.4154 9.68797L38.1553 9.0153L37.4154 9.68797ZM39.9754 12.584V11.584C39.0055 11.584 38.203 11.373 37.5346 10.9838L37.0314 11.848L36.5282 12.7121C37.5451 13.3043 38.7053 13.584 39.9754 13.584V12.584ZM37.0314 11.848L37.5394 10.9866C36.8644 10.5885 36.3332 10.0425 35.9375 9.33032L35.0634 9.81597L34.1892 10.3016C34.7536 11.3174 35.5344 12.1261 36.5234 12.7093L37.0314 11.848ZM35.0634 9.81597L35.9445 9.34315C35.5642 8.63435 35.3594 7.79322 35.3594 6.79197H34.3594H33.3594C33.3594 8.07338 33.6239 9.24825 34.1822 10.2888L35.0634 9.81597ZM34.3594 6.79197H35.3594C35.3594 5.7904 35.5643 4.95679 35.9421 4.2613L35.0634 3.78397L34.1847 3.30664C33.6238 4.33915 33.3594 5.51087 33.3594 6.79197H34.3594ZM35.0634 3.78397L35.94 4.26506C36.3365 3.54255 36.8675 2.99359 37.5394 2.59733L37.0314 1.73597L36.5234 0.874602C35.5313 1.45968 34.7502 2.27605 34.1867 3.30287L35.0634 3.78397ZM37.0314 1.73597L37.5346 2.60014C38.203 2.21096 39.0055 1.99997 39.9754 1.99997V0.999968V-3.24249e-05C38.7053 -3.24249e-05 37.5451 0.279646 36.5282 0.871792L37.0314 1.73597ZM39.9754 0.999968V1.99997C40.9327 1.99997 41.7304 2.21012 42.4002 2.60014L42.9034 1.73597L43.4066 0.871792C42.391 0.280479 41.2367 -3.24249e-05 39.9754 -3.24249e-05V0.999968ZM42.9034 1.73597L42.4002 2.60014C43.0801 2.99605 43.6066 3.54191 43.9902 4.25678L44.8714 3.78397L45.7525 3.31115C45.1975 2.27669 44.412 1.45722 43.4066 0.871792L42.9034 1.73597ZM44.8714 3.78397L43.9927 4.2613C44.3705 4.95679 44.5754 5.7904 44.5754 6.79197H45.5754H46.5754C46.5754 5.51087 46.311 4.33915 45.7501 3.30664L44.8714 3.78397ZM45.5754 6.79197H44.5754C44.5754 7.79322 44.3705 8.63435 43.9902 9.34315L44.8714 9.81597L45.7525 10.2888C46.3109 9.24825 46.5754 8.07338 46.5754 6.79197H45.5754ZM44.8714 9.81597L43.9927 9.33864C43.6099 10.0432 43.0832 10.5861 42.4002 10.9838L42.9034 11.848L43.4066 12.7121C44.4089 12.1285 45.1941 11.3168 45.7501 10.2933L44.8714 9.81597ZM42.9034 11.848L42.4002 10.9838C41.7304 11.3738 40.9327 11.584 39.9754 11.584V12.584V13.584C41.2367 13.584 42.391 13.3035 43.4066 12.7121L42.9034 11.848ZM39.9754 10.744V11.744C41.2857 11.744 42.4202 11.2994 43.2649 10.3544L42.5194 9.68797L41.7738 9.0215C41.3599 9.48454 40.7983 9.74397 39.9754 9.74397V10.744ZM42.5194 9.68797L43.2593 10.3606C44.1106 9.42421 44.4794 8.19324 44.4794 6.79197H43.4794H42.4794C42.4794 7.84403 42.2081 8.54372 41.7794 9.0153L42.5194 9.68797ZM43.4794 6.79197H44.4794C44.4794 5.39069 44.1106 4.15972 43.2593 3.22329L42.5194 3.89597L41.7794 4.56864C42.2081 5.04021 42.4794 5.73991 42.4794 6.79197H43.4794ZM42.5194 3.89597L43.2649 3.2295C42.4202 2.28454 41.2857 1.83997 39.9754 1.83997V2.83997V3.83997C40.7983 3.83997 41.3599 4.09939 41.7738 4.56243L42.5194 3.89597ZM39.9754 2.83997V1.83997C38.6648 1.83997 37.529 2.28436 36.6754 3.22329L37.4154 3.89597L38.1553 4.56864C38.5817 4.09958 39.1526 3.83997 39.9754 3.83997V2.83997ZM37.4154 3.89597L36.6754 3.22329C35.8241 4.15972 35.4554 5.39069 35.4554 6.79197H36.4554H37.4554C37.4554 5.73991 37.7266 5.04021 38.1553 4.56864L37.4154 3.89597ZM36.4554 6.79197H35.4554C35.4554 8.19324 35.8241 9.42421 36.6754 10.3606L37.4154 9.68797L38.1553 9.0153C37.7266 8.54372 37.4554 7.84403 37.4554 6.79197H36.4554ZM37.4154 9.68797L36.6754 10.3606C37.529 11.2996 38.6648 11.744 39.9754 11.744V10.744V9.74397C39.1526 9.74397 38.5817 9.48436 38.1553 9.0153L37.4154 9.68797ZM47.3836 12.392H46.3836V13.392H47.3836V12.392ZM47.3836 1.19197V0.191967H46.3836V1.19197H47.3836ZM49.8156 1.19197L50.7092 0.743144L50.4324 0.191967H49.8156V1.19197ZM53.3836 8.29597L52.49 8.74479L53.3897 10.5361L54.2797 8.73995L53.3836 8.29597ZM56.9036 1.19197V0.191967H56.2831L56.0076 0.747985L56.9036 1.19197ZM59.3356 1.19197H60.3356V0.191967H59.3356V1.19197ZM59.3356 12.392V13.392H60.3356V12.392H59.3356ZM57.2876 12.392H56.2876V13.392H57.2876V12.392ZM57.2876 4.66397H58.2876L56.3965 4.21025L57.2876 4.66397ZM54.1676 10.792V11.792H54.7806L55.0588 11.2457L54.1676 10.792ZM52.5516 10.792L51.6605 11.2457L51.9386 11.792H52.5516V10.792ZM49.4316 4.66397L50.3228 4.21025L48.4316 4.66397H49.4316ZM49.4316 12.392V13.392H50.4316V12.392H49.4316ZM47.3836 12.392H48.3836V1.19197H47.3836H46.3836V12.392H47.3836ZM47.3836 1.19197V2.19197H49.8156V1.19197V0.191967H47.3836V1.19197ZM49.8156 1.19197L48.922 1.64079L52.49 8.74479L53.3836 8.29597L54.2772 7.84714L50.7092 0.743144L49.8156 1.19197ZM53.3836 8.29597L54.2797 8.73995L57.7997 1.63595L56.9036 1.19197L56.0076 0.747985L52.4876 7.85199L53.3836 8.29597ZM56.9036 1.19197V2.19197H59.3356V1.19197V0.191967H56.9036V1.19197ZM59.3356 1.19197H58.3356V12.392H59.3356H60.3356V1.19197H59.3356ZM59.3356 12.392V11.392H57.2876V12.392V13.392H59.3356V12.392ZM57.2876 12.392H58.2876V4.66397H57.2876H56.2876V12.392H57.2876ZM57.2876 4.66397L56.3965 4.21025L53.2765 10.3383L54.1676 10.792L55.0588 11.2457L58.1788 5.11768L57.2876 4.66397ZM54.1676 10.792V9.79197H52.5516V10.792V11.792H54.1676V10.792ZM52.5516 10.792L53.4428 10.3383L50.3228 4.21025L49.4316 4.66397L48.5405 5.11768L51.6605 11.2457L52.5516 10.792ZM49.4316 4.66397H48.4316V12.392H49.4316H50.4316V4.66397H49.4316ZM49.4316 12.392V11.392H47.3836V12.392V13.392H49.4316V12.392ZM61.4126 12.152L60.7055 12.8591L60.7134 12.8669L60.7214 12.8746L61.4126 12.152ZM61.4126 10.44L60.7214 9.71733L60.7134 9.72501L60.7055 9.73286L61.4126 10.44ZM63.2526 10.44L62.5455 11.1471L62.5534 11.1549L62.5614 11.1626L63.2526 10.44ZM63.2526 12.152L62.5614 11.4293L62.5534 11.437L62.5455 11.4449L63.2526 12.152ZM62.3406 12.504V11.504C62.1968 11.504 62.1438 11.4675 62.1038 11.4293L61.4126 12.152L60.7214 12.8746C61.1721 13.3057 61.7378 13.504 62.3406 13.504V12.504ZM61.4126 12.152L62.1197 11.4449C62.0718 11.397 62.0606 11.3683 62.0606 11.304H61.0606H60.0606C60.0606 11.9009 60.2841 12.4376 60.7055 12.8591L61.4126 12.152ZM61.0606 11.304H62.0606C62.0606 11.2194 62.0785 11.1883 62.1197 11.1471L61.4126 10.44L60.7055 9.73286C60.2774 10.161 60.0606 10.7059 60.0606 11.304H61.0606ZM61.4126 10.44L62.1038 11.1626C62.1438 11.1244 62.1968 11.088 62.3406 11.088V10.088V9.08797C61.7378 9.08797 61.1721 9.28619 60.7214 9.71733L61.4126 10.44ZM62.3406 10.088V11.088C62.4849 11.088 62.5225 11.1241 62.5455 11.1471L63.2526 10.44L63.9597 9.73286C63.5134 9.28654 62.943 9.08797 62.3406 9.08797V10.088ZM63.2526 10.44L62.5614 11.1626C62.6083 11.2075 62.6206 11.2339 62.6206 11.304H63.6206H64.6206C64.6206 10.6914 64.3876 10.1418 63.9438 9.71733L63.2526 10.44ZM63.6206 11.304H62.6206C62.6206 11.3425 62.6142 11.3592 62.6113 11.3659C62.6081 11.3732 62.5977 11.3946 62.5614 11.4293L63.2526 12.152L63.9438 12.8746C64.3805 12.457 64.6206 11.9157 64.6206 11.304H63.6206ZM63.2526 12.152L62.5455 11.4449C62.5225 11.4679 62.4849 11.504 62.3406 11.504V12.504V13.504C62.943 13.504 63.5134 13.3054 63.9597 12.8591L63.2526 12.152Z" fill="#727272" fill-opacity="0.31" mask="url(#path-1-outside-1_1_342)"/>
</svg>
