<svg width="8" height="14" viewBox="0 0 8 14" fill="none" xmlns="http://www.w3.org/2000/svg">
<path d="M0.321957 7.41992L5.98196 13.0699C6.07492 13.1637 6.18552 13.238 6.30738 13.2888C6.42924 13.3396 6.55994 13.3657 6.69196 13.3657C6.82397 13.3657 6.95467 13.3396 7.07653 13.2888C7.19839 13.238 7.30899 13.1637 7.40196 13.0699C7.58821 12.8826 7.69275 12.6291 7.69275 12.3649C7.69275 12.1007 7.58821 11.8473 7.40196 11.6599L2.45196 6.65992L7.40196 1.70992C7.58821 1.52256 7.69275 1.26911 7.69275 1.00492C7.69275 0.740739 7.58821 0.487288 7.40196 0.299925C7.30934 0.205437 7.1989 0.130266 7.07702 0.0787696C6.95515 0.0272731 6.82426 0.000474854 6.69196 -7.44741e-05C6.55965 0.000474831 6.42877 0.0272731 6.30689 0.0787696C6.18502 0.130266 6.07457 0.205437 5.98196 0.299925L0.321957 5.94992C0.220452 6.04357 0.139444 6.15722 0.0840365 6.28372C0.028629 6.41022 2.4438e-05 6.54682 2.44259e-05 6.68492C2.44138e-05 6.82303 0.0286289 6.95963 0.0840364 7.08613C0.139444 7.21263 0.220452 7.32628 0.321957 7.41992Z" fill="#5051F9"/>
</svg>
