<svg width="14" height="8" viewBox="0 0 14 8" fill="none" xmlns="http://www.w3.org/2000/svg">
<path d="M7.42005 7.37079L13.07 1.71079C13.1638 1.61783 13.2382 1.50723 13.2889 1.38537C13.3397 1.26351 13.3658 1.1328 13.3658 1.00079C13.3658 0.868781 13.3397 0.738075 13.2889 0.616216C13.2382 0.494356 13.1638 0.383755 13.07 0.290792C12.8827 0.104542 12.6292 -3.21984e-08 12.365 -4.37463e-08C12.1009 -5.52942e-08 11.8474 0.104541 11.66 0.290792L6.66005 5.24079L1.71005 0.290792C1.52268 0.104541 1.26923 -5.2876e-07 1.00505 -5.40308e-07C0.740861 -5.51856e-07 0.487409 0.104541 0.300047 0.290792C0.205559 0.383407 0.130388 0.493852 0.0788917 0.615727C0.0273951 0.737602 0.000596896 0.868485 4.764e-05 1.00079C0.000596884 1.1331 0.0273951 1.26398 0.0788917 1.38586C0.130388 1.50773 0.205559 1.61818 0.300047 1.71079L5.95005 7.37079C6.04369 7.4723 6.15734 7.55331 6.28384 7.60871C6.41034 7.66412 6.54694 7.69272 6.68505 7.69272C6.82315 7.69272 6.95975 7.66412 7.08625 7.60871C7.21275 7.55331 7.3264 7.4723 7.42005 7.37079Z" fill="#FEFEFE"/>
</svg>
